HIERARCHY
ROOT Hips
{
	OFFSET 0.000000 0.000000 0.000000
	CHANNELS 6 Xposition Yposition Zposition Zrotation Yrotation Xrotation 
	JOINT LeftUpLeg_virtual
	{
		OFFSET 0.000000 0.000000 0.000000
		CHANNELS 3 Zrotation Yrotation Xrotation
		JOINT LeftUpLeg
		{
			OFFSET 8.479694 -4.795517 -0.379053
			CHANNELS 3 Zrotation Yrotation Xrotation
			JOINT LeftLeg
			{
				OFFSET 0.485052 -32.551468 0.112863
				CHANNELS 3 Zrotation Yrotation Xrotation
				JOINT LeftFoot
				{
					OFFSET 0.438033 -32.635670 -3.012641
					CHANNELS 3 Zrotation Yrotation Xrotation
					JOINT LeftToeBase
					{
						OFFSET 0.970169 -13.225353 11.864223
						CHANNELS 3 Zrotation Yrotation Xrotation
						End Site
						{
							OFFSET 0.000000 0.000000 0.000000
						}
					}
				}
			}
		}
	}
	JOINT RightUpLeg_virtual
	{
		OFFSET 0.000000 0.000000 0.000000
		CHANNELS 3 Zrotation Yrotation Xrotation
		JOINT RightUpLeg
		{
			OFFSET -8.479694 -4.795517 -0.379053
			CHANNELS 3 Zrotation Yrotation Xrotation
			JOINT RightLeg
			{
				OFFSET -0.484100 -32.551483 0.112903
				CHANNELS 3 Zrotation Yrotation Xrotation
				JOINT RightFoot
				{
					OFFSET -0.438985 -32.635651 -3.012681
					CHANNELS 3 Zrotation Yrotation Xrotation
					JOINT RightToeBase
					{
						OFFSET -0.970169 -13.225354 11.864223
						CHANNELS 3 Zrotation Yrotation Xrotation
						End Site
						{
							OFFSET 0.000000 0.000000 0.000000
						}
					}
				}
			}
		}
	}
	JOINT Spine_virtual
	{
		OFFSET 0.000000 0.000000 0.000000
		CHANNELS 3 Zrotation Yrotation Xrotation
		JOINT Spine
		{
			OFFSET 0.000000 7.722015 1.166203
			CHANNELS 3 Zrotation Yrotation Xrotation
			JOINT Spine1
			{
				OFFSET 0.000000 12.024086 0.248766
				CHANNELS 3 Zrotation Yrotation Xrotation
				JOINT Spine2
				{
					OFFSET -0.000000 11.503036 -0.491240
					CHANNELS 3 Zrotation Yrotation Xrotation
					JOINT Neck_virtual
					{
						OFFSET 0.000000 0.000000 0.000000
						CHANNELS 3 Zrotation Yrotation Xrotation
						JOINT Neck
						{
							OFFSET 0.000000 18.430687 -3.123054
							CHANNELS 3 Zrotation Yrotation Xrotation
							JOINT Head
							{
								OFFSET -0.000000 9.051071 1.034021
								CHANNELS 3 Zrotation Yrotation Xrotation
								End Site
								{
									OFFSET 0.000000 0.000000 0.000000
								}
							}
						}
					}
					JOINT LeftShoulder_virtual
					{
						OFFSET 0.000000 0.000000 0.000000
						CHANNELS 3 Zrotation Yrotation Xrotation
						JOINT LeftShoulder
						{
							OFFSET 6.197824 13.665230 -4.064723
							CHANNELS 3 Zrotation Yrotation Xrotation
							JOINT LeftArm
							{
								OFFSET 7.778132 -0.187073 -1.709282
								CHANNELS 3 Zrotation Yrotation Xrotation
								JOINT LeftForeArm
								{
									OFFSET 21.954697 0.000000 -2.041093
									CHANNELS 3 Zrotation Yrotation Xrotation
									JOINT LeftHand
									{
										OFFSET 22.992908 0.000000 -0.870901
										CHANNELS 3 Zrotation Yrotation Xrotation
										End Site
										{
											OFFSET 0.000000 0.000000 0.000000
										}
									}
								}
							}
						}
					}
					JOINT RightShoulder_virtual
					{
						OFFSET 0.000000 0.000000 0.000000
						CHANNELS 3 Zrotation Yrotation Xrotation
						JOINT RightShoulder
						{
							OFFSET -6.197824 13.665230 -4.064723
							CHANNELS 3 Zrotation Yrotation Xrotation
							JOINT RightArm
							{
								OFFSET -7.778132 -0.187073 -1.709282
								CHANNELS 3 Zrotation Yrotation Xrotation
								JOINT RightForeArm
								{
									OFFSET -21.954697 0.000000 -2.041093
									CHANNELS 3 Zrotation Yrotation Xrotation
									JOINT RightHand
									{
										OFFSET -22.992908 0.000000 -0.870901
										CHANNELS 3 Zrotation Yrotation Xrotation
										End Site
										{
											OFFSET 0.000000 0.000000 0.000000
										}
									}
								}
							}
						}
					}
				}
			}
		}
	}
}
MOTION
Frames: 11
Frame Time: 0.033333
-21.605909 79.053978 140.492966 -179.731715 9.210606 179.955185 -4.170767 -0.622065 11.991238 -1.275639 -0.189038 -34.251152 10.571121 7.678479 30.354689 -5.871557 -7.961460 -10.197902 0.000000 0.000000 0.000000 1.741679 -2.072777 10.835543 -3.336473 11.934238 -36.743607 -1.019264 2.845285 36.137025 3.580647 5.527924 -12.864257 0.000000 0.000000 0.000000 3.699899 0.797197 0.346992 -1.931950 -0.646592 -2.124390 -0.178162 -1.536508 10.586009 -0.003023 -0.127589 -0.025972 -0.632813 -0.196612 11.959115 1.026093 -2.012609 -6.427387 0.000000 0.000000 0.000000 0.649669 0.701505 9.174336 -13.169957 -9.850994 3.353318 -59.263605 -10.002662 5.756732 -1.421147 -9.106463 8.701162 0.000000 0.000000 0.000000 -3.016988 2.189411 8.633155 27.944604 0.356699 4.668546 38.601835 9.534387 -0.598996 -4.103462 19.502625 -3.664259 0.000000 0.000000 0.000000 
-21.564890 79.039963 140.530502 -179.612405 9.321797 179.899847 -4.233204 -0.755761 11.908431 -1.384198 -0.217471 -34.484167 10.442920 7.905624 30.084579 -6.102514 -8.057736 -9.993776 0.000000 0.000000 0.000000 1.883712 -2.183568 10.903349 -3.272744 11.998414 -36.733031 -1.046323 2.853949 36.288768 3.489431 5.402792 -12.851786 0.000000 0.000000 0.000000 3.901811 0.731157 0.504245 -1.835528 -0.575852 -2.081986 -0.141692 -1.506026 10.558497 -0.039527 -0.050773 -0.063473 -0.628208 -0.355817 11.964995 0.958755 -2.017570 -6.458726 0.000000 0.000000 0.000000 0.655973 0.704249 9.162182 -13.181467 -9.726019 3.407673 -59.157252 -9.997745 5.764549 -1.435201 -8.879351 8.729669 0.000000 0.000000 0.000000 -3.065331 2.180135 8.650541 27.886792 0.433434 4.596138 38.851728 9.581799 -0.608706 -4.006238 19.287411 -3.570692 0.000000 0.000000 0.000000 
-21.490337 79.024239 140.507751 -179.627295 9.211396 179.983244 -4.237431 -0.841322 11.937879 -1.366583 -0.104198 -34.573762 10.418117 7.869484 30.149773 -6.285803 -8.004861 -9.818978 0.000000 0.000000 0.000000 1.825971 -2.236877 10.887341 -3.142735 11.850881 -36.806407 -0.983195 2.854538 36.364180 3.462241 5.409512 -12.881658 0.000000 0.000000 0.000000 3.903709 0.692325 0.655558 -1.713480 -0.485070 -2.129265 -0.102078 -1.581206 10.483871 -0.034371 -0.100813 -0.059635 -0.580967 -0.272343 11.967926 0.845155 -1.970203 -6.400670 0.000000 0.000000 0.000000 0.690891 0.680266 9.214018 -13.290360 -9.540113 3.445907 -58.902984 -9.790581 5.979726 -1.383296 -8.718544 8.672259 0.000000 0.000000 0.000000 -2.940755 2.114907 8.583524 27.607290 0.558485 4.562419 39.237596 9.475167 -0.601439 -4.127018 18.842105 -3.801445 0.000000 0.000000 0.000000 
-21.426233 79.010384 140.418304 -179.626134 8.971122 179.963436 -4.290448 -0.893066 11.954130 -1.315977 0.022061 -34.692874 10.349938 7.759227 30.227829 -6.511963 -7.995232 -9.774129 0.000000 0.000000 0.000000 1.835971 -2.283155 10.893353 -2.970174 11.601808 -36.779230 -0.976129 2.973832 36.602034 3.384478 5.400802 -13.058731 0.000000 0.000000 0.000000 3.847450 0.683023 0.905146 -1.548645 -0.358175 -2.184974 -0.059094 -1.629336 10.431357 -0.040236 -0.073584 -0.021736 -0.399074 -0.342413 11.988671 0.930610 -2.084150 -6.197199 0.000000 0.000000 0.000000 0.772360 0.627027 9.165505 -13.361238 -9.320417 3.417911 -58.726110 -9.616455 6.397784 -1.450634 -8.679480 8.651284 0.000000 0.000000 0.000000 -2.846734 2.048768 8.512672 27.177283 0.587916 4.506156 39.885658 9.054913 -0.642885 -4.132133 18.361925 -3.968497 0.000000 0.000000 0.000000 
-21.371668 79.000343 140.306320 -179.669055 8.580391 -179.969515 -4.406975 -0.930791 12.002224 -1.239602 0.104492 -34.837086 10.248507 7.637637 30.383929 -6.711514 -8.029945 -9.737942 0.000000 0.000000 0.000000 1.691032 -2.169003 10.883669 -2.697687 11.260815 -36.751602 -0.999739 3.025135 36.801049 3.218969 5.293366 -13.222801 0.000000 0.000000 0.000000 3.723137 0.537409 1.087386 -1.327566 -0.190790 -2.305837 -0.003261 -1.710601 10.370681 -0.070378 -0.024298 0.001571 -0.353601 -0.387430 11.918907 0.952953 -2.031683 -6.004769 0.000000 0.000000 0.000000 0.856217 0.533172 9.173689 -13.456015 -9.124622 3.389892 -58.646852 -9.433053 6.928138 -1.560163 -8.552565 8.470901 0.000000 0.000000 0.000000 -2.787058 1.961388 8.467513 26.602378 0.626228 4.487185 40.954303 8.356523 -0.673700 -4.150907 17.832826 -4.167188 0.000000 0.000000 0.000000 
-21.312603 79.004692 140.221603 -179.664451 8.256093 179.950431 -4.479241 -0.835980 12.109165 -1.146859 0.171352 -34.814451 10.113080 7.493384 30.478264 -6.815329 -8.116834 -9.730433 0.000000 0.000000 0.000000 1.620361 -2.105021 10.894751 -2.430885 10.855604 -36.581530 -0.984301 3.042570 36.862999 3.114180 5.223600 -13.265091 0.000000 0.000000 0.000000 3.733242 0.552101 1.310190 -1.161654 -0.065041 -2.414541 -0.020498 -1.835083 10.345787 -0.024310 -0.040877 -0.002337 -0.287302 -0.478835 11.829959 1.221620 -2.291551 -5.674271 0.000000 0.000000 0.000000 0.865900 0.450981 9.091939 -13.539021 -8.802846 3.325773 -58.654898 -9.467739 7.448688 -1.727146 -8.215054 8.442965 0.000000 0.000000 0.000000 -2.843105 1.859365 8.389628 26.101903 0.597344 4.428556 42.118396 7.474400 -0.680040 -4.181785 17.536946 -4.369643 0.000000 0.000000 0.000000 
-21.294439 79.015045 140.106033 -179.681158 7.994089 179.928793 -4.533574 -0.713130 12.145786 -1.072961 0.192756 -34.845453 9.972226 7.443447 30.576592 -6.783208 -8.241684 -9.763144 0.000000 0.000000 0.000000 1.437034 -1.829247 10.966999 -2.205609 10.648460 -36.419709 -0.988719 3.057703 36.871287 3.047008 5.180386 -13.491167 0.000000 0.000000 0.000000 3.710378 0.629687 1.391970 -0.908442 0.161152 -2.562595 -0.070582 -1.901632 10.409927 -0.061800 -0.074429 -0.050152 -0.328646 -0.519160 11.870742 1.533208 -2.171350 -5.221704 0.000000 0.000000 0.000000 0.847674 0.331436 9.013253 -13.542032 -8.456409 3.182088 -58.597272 -9.702781 7.824833 -1.839051 -7.757766 8.199616 0.000000 0.000000 0.000000 -2.897824 1.753181 8.485504 25.804818 0.532328 4.446003 43.390973 6.473269 -0.499314 -4.085535 17.455368 -4.590699 0.000000 0.000000 0.000000 
-21.277678 79.026794 139.929794 -179.669588 7.850078 -179.971100 -4.529583 -0.595356 12.122950 -1.019594 0.225929 -34.950310 9.825277 7.417651 30.770986 -6.611460 -8.399616 -9.821502 0.000000 0.000000 0.000000 1.466097 -1.673850 10.919703 -2.014476 10.208595 -36.212932 -0.959100 3.287722 36.850810 3.035448 5.145381 -13.721504 0.000000 0.000000 0.000000 3.771737 0.722878 1.358068 -0.742147 0.341711 -2.744257 -0.157695 -2.007921 10.489576 -0.077089 -0.063768 -0.048291 -0.481598 -0.671625 11.938497 1.952905 -2.248211 -4.647400 0.000000 0.000000 0.000000 0.685335 0.153007 8.992572 -13.397539 -8.077875 2.988694 -58.540971 -10.098097 8.141892 -2.036192 -7.513280 8.002311 0.000000 0.000000 0.000000 -3.013107 1.633294 8.513280 25.741815 0.434205 4.447274 44.522626 5.625563 -0.215360 -4.210460 17.525465 -4.662085 0.000000 0.000000 0.000000 
-21.257513 79.019943 139.593491 -179.665148 7.827820 -179.939845 -4.479895 -0.559064 12.171276 -1.012856 0.249860 -34.977467 9.700414 7.404050 31.236531 -6.294913 -8.557699 -10.151295 0.000000 0.000000 0.000000 1.448829 -1.577541 10.865776 -1.802700 9.679756 -35.876931 -0.914196 3.462590 36.909946 3.152890 5.200692 -14.117486 0.000000 0.000000 0.000000 3.814968 0.765379 1.284368 -0.646472 0.520318 -2.865180 -0.252185 -2.083993 10.630330 -0.076895 -0.020930 0.001844 -0.664627 -0.959524 12.057535 2.480375 -2.298843 -3.937668 0.000000 0.000000 0.000000 0.631043 -0.046084 8.932472 -13.158376 -7.632613 2.781316 -58.584028 -10.363751 8.499701 -2.258058 -7.726520 7.757504 0.000000 0.000000 0.000000 -3.151598 1.399672 8.579475 25.946610 0.340745 4.434724 45.331190 5.022355 0.265188 -4.199661 17.676516 -4.704837 0.000000 0.000000 0.000000 
-21.219074 78.957436 139.051300 -179.640437 7.718751 -179.939667 -4.370469 -0.746840 12.158512 -1.048590 0.238390 -34.858021 9.616058 7.356927 32.000451 -5.861590 -8.691293 -10.911869 0.000000 0.000000 0.000000 1.452688 -2.004856 10.758955 -1.592166 9.163408 -35.439755 -0.790681 3.512722 37.212944 3.472992 5.423891 -14.776891 0.000000 0.000000 0.000000 3.910617 0.473801 1.106329 -0.640770 0.617269 -2.924789 -0.421467 -2.235905 10.851599 -0.070436 -0.099338 -0.077847 -0.697188 -0.778983 12.288266 3.207080 -2.461979 -3.165551 0.000000 0.000000 0.000000 0.504779 -0.127894 8.941290 -12.761579 -7.016349 2.581769 -58.677943 -10.339580 8.889805 -2.496832 -8.413240 7.799560 0.000000 0.000000 0.000000 -3.278050 1.341154 8.667996 26.290938 0.270227 4.444301 45.625503 4.730242 0.621344 -4.148027 17.550448 -4.444412 0.000000 0.000000 0.000000 
-21.135605 78.849525 138.327591 -179.673194 7.761140 -179.790988 -4.218059 -1.062123 12.152606 -1.152497 0.189353 -34.779429 9.565118 7.362228 32.915460 -5.398665 -8.771815 -11.973162 0.000000 0.000000 0.000000 1.494287 -2.579142 10.613073 -1.293295 8.296974 -35.036159 -0.769785 3.699096 37.689691 4.106583 5.955093 -15.723034 0.000000 0.000000 0.000000 3.857676 -0.213736 0.715970 -0.650345 0.763989 -3.007686 -0.424553 -2.272306 10.875416 -0.049666 -0.052396 0.009238 -0.880579 -1.283766 12.487968 3.806090 -2.445327 -2.450457 0.000000 0.000000 0.000000 0.353927 -0.173778 8.955903 -12.340475 -6.240897 2.419384 -58.948508 -9.807426 9.143629 -2.742918 -9.363354 7.797533 0.000000 0.000000 0.000000 -3.386440 1.269158 8.682740 26.731470 0.172931 4.406925 45.209825 5.011453 0.531050 -4.124341 17.137325 -4.351054 0.000000 0.000000 0.000000 
